<svg xmlns="http://www.w3.org/2000/svg" viewBox="0 0 100 100">
  <!-- Background circle -->
  <circle cx="50" cy="50" r="45" fill="#1e293b" stroke="#6366f1" stroke-width="3"/>
  
  <!-- Wheel segments -->
  <g transform="translate(50, 50)">
    <!-- Red segment -->
    <path d="M 0,0 L 35,0 A 35,35 0 0,1 24.7,24.7 Z" fill="#ef4444" opacity="0.9"/>
    <!-- Blue segment -->
    <path d="M 0,0 L 24.7,24.7 A 35,35 0 0,1 0,35 Z" fill="#3b82f6" opacity="0.9"/>
    <!-- Green segment -->
    <path d="M 0,0 L 0,35 A 35,35 0 0,1 -24.7,24.7 Z" fill="#22c55e" opacity="0.9"/>
    <!-- Yellow segment -->
    <path d="M 0,0 L -24.7,24.7 A 35,35 0 0,1 -35,0 Z" fill="#f59e0b" opacity="0.9"/>
    <!-- Purple segment -->
    <path d="M 0,0 L -35,0 A 35,35 0 0,1 -24.7,-24.7 Z" fill="#8b5cf6" opacity="0.9"/>
    <!-- Pink segment -->
    <path d="M 0,0 L -24.7,-24.7 A 35,35 0 0,1 0,-35 Z" fill="#ec4899" opacity="0.9"/>
    <!-- Cyan segment -->
    <path d="M 0,0 L 0,-35 A 35,35 0 0,1 24.7,-24.7 Z" fill="#06b6d4" opacity="0.9"/>
    <!-- Orange segment -->
    <path d="M 0,0 L 24.7,-24.7 A 35,35 0 0,1 35,0 Z" fill="#f97316" opacity="0.9"/>
  </g>
  
  <!-- Center circle -->
  <circle cx="50" cy="50" r="12" fill="#6366f1"/>
  <circle cx="50" cy="50" r="8" fill="white"/>
  
  <!-- Pointer/Arrow at top -->
  <path d="M 50,5 L 45,15 L 55,15 Z" fill="#ef4444"/>
</svg>
